<mxfile host="Electron" agent="Mozilla/5.0 (X11; Linux x86_64) AppleWebKit/537.36 (KHTML, like Gecko) draw.io/24.7.17 Chrome/128.0.6613.36 Electron/32.0.1 Safari/537.36" version="24.7.17">
  <diagram name="Page-1" id="gNFd1JGEiyH9d7c3julU">
    <mxGraphModel dx="1434" dy="847" grid="1" gridSize="10" guides="1" tooltips="1" connect="1" arrows="1" fold="1" page="1" pageScale="1" pageWidth="1100" pageHeight="850" math="0" shadow="0">
      <root>
        <mxCell id="0" />
        <mxCell id="1" parent="0" />
        <mxCell id="zomiv98VFEeDkHWxNzSj-14" style="edgeStyle=orthogonalEdgeStyle;rounded=0;orthogonalLoop=1;jettySize=auto;html=1;entryX=0;entryY=0.5;entryDx=0;entryDy=0;strokeWidth=2;" edge="1" parent="1" source="zomiv98VFEeDkHWxNzSj-1" target="zomiv98VFEeDkHWxNzSj-2">
          <mxGeometry relative="1" as="geometry">
            <Array as="points">
              <mxPoint x="160" y="270" />
            </Array>
          </mxGeometry>
        </mxCell>
        <mxCell id="zomiv98VFEeDkHWxNzSj-1" value="&lt;font style=&quot;font-size: 24px;&quot;&gt;Quantum Requirements Specification&lt;/font&gt;" style="rounded=0;whiteSpace=wrap;html=1;strokeWidth=2;" vertex="1" parent="1">
          <mxGeometry x="120" y="100" width="280" height="100" as="geometry" />
        </mxCell>
        <mxCell id="zomiv98VFEeDkHWxNzSj-2" value="&lt;font style=&quot;font-size: 24px;&quot;&gt;Quantum System Design&lt;/font&gt;" style="rounded=0;whiteSpace=wrap;html=1;strokeWidth=2;" vertex="1" parent="1">
          <mxGeometry x="200" y="220" width="280" height="100" as="geometry" />
        </mxCell>
        <mxCell id="zomiv98VFEeDkHWxNzSj-3" value="&lt;font style=&quot;font-size: 24px;&quot;&gt;Quantum Software Implementation and Coding (Development)&lt;/font&gt;" style="rounded=0;whiteSpace=wrap;html=1;strokeWidth=2;" vertex="1" parent="1">
          <mxGeometry x="280" y="340" width="280" height="100" as="geometry" />
        </mxCell>
        <mxCell id="zomiv98VFEeDkHWxNzSj-4" value="&lt;font style=&quot;font-size: 24px;&quot;&gt;Quantum System Testing&lt;/font&gt;" style="rounded=0;whiteSpace=wrap;html=1;strokeWidth=2;" vertex="1" parent="1">
          <mxGeometry x="360" y="460" width="280" height="100" as="geometry" />
        </mxCell>
        <mxCell id="zomiv98VFEeDkHWxNzSj-5" value="&lt;font style=&quot;font-size: 24px;&quot;&gt;Quantum System Maintenance &amp;amp; Quality Management&lt;/font&gt;" style="rounded=0;whiteSpace=wrap;html=1;strokeWidth=2;" vertex="1" parent="1">
          <mxGeometry x="440" y="580" width="280" height="100" as="geometry" />
        </mxCell>
        <mxCell id="zomiv98VFEeDkHWxNzSj-15" style="edgeStyle=orthogonalEdgeStyle;rounded=0;orthogonalLoop=1;jettySize=auto;html=1;entryX=0;entryY=0.5;entryDx=0;entryDy=0;strokeWidth=2;" edge="1" parent="1">
          <mxGeometry relative="1" as="geometry">
            <mxPoint x="240" y="320" as="sourcePoint" />
            <mxPoint x="280" y="390" as="targetPoint" />
            <Array as="points">
              <mxPoint x="240" y="390" />
            </Array>
          </mxGeometry>
        </mxCell>
        <mxCell id="zomiv98VFEeDkHWxNzSj-16" style="edgeStyle=orthogonalEdgeStyle;rounded=0;orthogonalLoop=1;jettySize=auto;html=1;entryX=0;entryY=0.5;entryDx=0;entryDy=0;strokeWidth=2;" edge="1" parent="1">
          <mxGeometry relative="1" as="geometry">
            <mxPoint x="320" y="440" as="sourcePoint" />
            <mxPoint x="360" y="510" as="targetPoint" />
            <Array as="points">
              <mxPoint x="320" y="510" />
            </Array>
          </mxGeometry>
        </mxCell>
        <mxCell id="zomiv98VFEeDkHWxNzSj-17" style="edgeStyle=orthogonalEdgeStyle;rounded=0;orthogonalLoop=1;jettySize=auto;html=1;entryX=0;entryY=0.5;entryDx=0;entryDy=0;strokeWidth=2;" edge="1" parent="1">
          <mxGeometry relative="1" as="geometry">
            <mxPoint x="400" y="560" as="sourcePoint" />
            <mxPoint x="440" y="630" as="targetPoint" />
            <Array as="points">
              <mxPoint x="400" y="630" />
            </Array>
          </mxGeometry>
        </mxCell>
      </root>
    </mxGraphModel>
  </diagram>
</mxfile>
